# xmcd
#
# Track frame offsets: 
#        150
#        13110
#        29265
#        42182
#        52093
#        62307
#        74032
#        89089
#        98003
#        106643
#        123283
#        141477
#
# Disc length: 2026 seconds
#
# Revision: 0
# Processed by: cddbd v1.5.2PL0 Copyright (c) Steve Scherf et al.
# Submitted via: ExactAudioCopy v0.99pb5
#
DISCID=a507e80c
DTITLE=Allegheny Blue - Greenbrier River
DYEAR=2009
DGENRE=Bluegrass
TTITLE0=Born In Dixie
TTITLE1=The Way They Used To
TTITLE2=Greenbrier River
TTITLE3=Shuckin' The Corn
TTITLE4=High On A Hill
TTITLE5=How Mt. Girls Can Love
TTITLE6=Rollin' Hills Of Virginia
TTITLE7=Fool's Gold
TTITLE8=Nine Pound Hammer
TTITLE9=Slave Ship
TTITLE10=Special Place
TTITLE11=Are you Ready
EXTD=
EXTT0=
EXTT1=
EXTT2=
EXTT3=
EXTT4=
EXTT5=
EXTT6=
EXTT7=
EXTT8=
EXTT9=
EXTT10=
EXTT11=
PLAYORDER=
